<mxfile host="app.diagrams.net" modified="2024-07-20T03:05:34.270Z" agent="Mozilla/5.0 (Windows NT 10.0; Win64; x64) AppleWebKit/537.36 (KHTML, like Gecko) Chrome/126.0.0.0 Safari/537.36" version="24.7.2" etag="s_Ab0lQnFUs87swzP5MI" type="github">
  <diagram name="PÃ¡gina-1" id="oTd9Tv5uIIqSay7q9XGX">
    <mxGraphModel>
      <root>
        <mxCell id="0" />
        <mxCell id="1" parent="0" />
      </root>
    </mxGraphModel>
  </diagram>
</mxfile>
